<?xml version="1.0" encoding="UTF-8"?><svg id="Layer_2" xmlns="http://www.w3.org/2000/svg" xmlns:xlink="http://www.w3.org/1999/xlink" viewBox="0 0 1024 1024"><defs><linearGradient id="linear-gradient" x1="485.2" y1="403.4" x2="657.25" y2="403.4" gradientUnits="userSpaceOnUse"><stop offset=".66" stop-color="#02274b"/><stop offset=".71" stop-color="#062f56"/><stop offset=".79" stop-color="#114674"/><stop offset=".9" stop-color="#236ca4"/><stop offset=".94" stop-color="#2a7bb7"/></linearGradient></defs><path d="M657.25,325h-124.2c-18.15,0-32.86,14.73-32.84,32.88v11.09c.03,16.04,13.04,29.03,29.08,29.03h20.08c16.21,0,29.35,13.14,29.35,29.35l.35,22.81c.03,1.75.12,2.98-.01,4.54-.79,9.3-7.99,18.45-10.33,20.7l-11.03,10.59" fill="none" stroke="url(#linear-gradient)" stroke-miterlimit="10" stroke-width="30"/><path d="M721.83,272.64c-15.95-70.41-65.79-127.65-131.15-153.01.69,4.02,1.07,8.15,1.07,12.37,0,8.32-1.42,16.3-4,23.74,48.76,22.02,86.02,65.57,100.09,118.78-22.8,8.25-39.09,30.08-39.09,55.73,0,32.72,26.53,59.25,59.25,59.25s59.25-26.53,59.25-59.25c0-27.96-19.37-51.38-45.42-57.61ZM708,361.92c-17.49,0-31.67-14.18-31.67-31.67s14.18-31.67,31.67-31.67,31.67,14.18,31.67,31.67-14.18,31.67-31.67,31.67Z" fill="#2a7bb7"/><path d="M711.67,404.92c-2.53.14-5.09.16-7.68.03-9.14-.45-17.78-2.58-25.68-6.06-20.35,47.74-60.27,84.85-109.49,100.88-8.86-21.57-30.06-36.77-54.82-36.77-32.72,0-59.25,26.53-59.25,59.25s26.53,59.25,59.25,59.25c28.8,0,52.78-20.54,58.13-47.77,63.91-18.46,115.54-66.58,139.54-128.8ZM514,553.92c-17.49,0-31.67-14.18-31.67-31.67s14.18-31.67,31.67-31.67,31.67,14.18,31.67,31.67-14.18,31.67-31.67,31.67Z" fill="#e2690e"/><path d="M373.25,335.5h32.95c14.09,0,25.48-11.46,25.41-25.55l-.07-13.15c-.11-20.01,16.08-36.29,36.09-36.29h13.46c18.87,0,33.16-14.65,33.16-33.52v-33" fill="none" stroke="#02274b" stroke-miterlimit="10" stroke-width="30"/><path d="M514,78c-26.03,0-48.12,16.79-56.08,40.13-73.92,20.53-131.74,80.64-150.06,156.53-28.92,4.29-51.11,29.22-51.11,59.34,0,31.68,24.56,57.61,55.68,59.83,20.13,62.01,67.15,111.58,127.06,134.42-.12-1.65-.21-3.32-.22-5-.07-10.28,2.02-20.07,5.82-28.96-46.43-19.83-82.87-59.02-99.57-107.62,18.61-10.19,31.24-29.95,31.24-52.66,0-24.23-14.37-45.09-35.05-54.56,15.55-58.7,59.34-105.62,115.64-124.84,7.42,24.26,29.98,41.91,56.66,41.91,32.72,0,59.25-26.53,59.25-59.25s-26.53-59.25-59.25-59.25ZM348.82,334c0,17.71-14.36,32.07-32.07,32.07s-32.07-14.36-32.07-32.07,14.36-32.07,32.07-32.07,32.07,14.36,32.07,32.07ZM514,168.92c-17.49,0-31.67-14.18-31.67-31.67s14.18-31.67,31.67-31.67,31.67,14.18,31.67,31.67-14.18,31.67-31.67,31.67Z" fill="#02274c"/><path d="M394.62,696.68c-6.66,0-12.67-1.28-18.05-3.84-5.38-2.56-10.03-6.04-13.95-10.43-3.93-4.39-6.96-9.34-9.09-14.85-2.13-5.5-3.2-11.16-3.2-16.96s1.13-11.84,3.39-17.34c2.26-5.5,5.38-10.41,9.34-14.72,3.97-4.31,8.68-7.72,14.14-10.24,5.46-2.52,11.39-3.78,17.79-3.78s12.56,1.32,17.98,3.97c5.42,2.65,10.05,6.19,13.89,10.62,3.84,4.44,6.8,9.39,8.9,14.85,2.09,5.46,3.14,11.09,3.14,16.9s-1.09,11.71-3.26,17.22c-2.18,5.5-5.25,10.41-9.22,14.72-3.97,4.31-8.66,7.7-14.08,10.18-5.42,2.48-11.33,3.71-17.73,3.71ZM368.26,650.6c0,3.93.6,7.72,1.79,11.39,1.19,3.67,2.92,6.93,5.18,9.79,2.26,2.86,5.03,5.12,8.32,6.78,3.28,1.66,7.02,2.5,11.2,2.5s8.15-.87,11.39-2.62c3.24-1.75,5.99-4.07,8.26-6.98,2.26-2.9,3.95-6.19,5.06-9.86,1.11-3.67,1.66-7.34,1.66-11.01,0-3.92-.6-7.7-1.79-11.33-1.2-3.63-2.94-6.87-5.25-9.73-2.3-2.86-5.08-5.12-8.32-6.78-3.24-1.66-6.96-2.5-11.14-2.5s-7.92.88-11.2,2.62c-3.29,1.75-6.06,4.05-8.32,6.91-2.26,2.86-3.97,6.1-5.12,9.73-1.15,3.63-1.73,7.32-1.73,11.07Z" fill="#02274c"/><path d="M490.5,697.32c-5.21,0-9.81-1.18-13.82-3.54-4.01-2.36-7.13-5.48-9.34-9.37v38.9h-17.02v-93.7h14.98v11.51c2.56-3.88,5.8-6.94,9.73-9.18,3.92-2.24,8.4-3.36,13.44-3.36,4.52,0,8.68.89,12.48,2.66,3.8,1.77,7.12,4.24,9.98,7.41,2.86,3.16,5.06,6.81,6.59,10.95,1.54,4.14,2.3,8.52,2.3,13.16,0,6.41-1.26,12.24-3.78,17.47-2.52,5.23-5.97,9.39-10.37,12.47-4.4,3.08-9.45,4.62-15.17,4.62ZM484.74,682.73c2.56,0,4.93-.54,7.1-1.63,2.18-1.09,4.03-2.55,5.57-4.39,1.54-1.84,2.73-4,3.58-6.47.85-2.47,1.28-5,1.28-7.6s-.45-5.21-1.34-7.6c-.9-2.38-2.2-4.46-3.9-6.21-1.71-1.76-3.69-3.14-5.95-4.14-2.26-1-4.76-1.51-7.49-1.51-1.54,0-3.14.27-4.8.81-1.66.54-3.26,1.31-4.8,2.31s-2.86,2.14-3.97,3.43c-1.11,1.29-2.01,2.76-2.69,4.43v15.57c1.11,2.42,2.54,4.63,4.29,6.63,1.75,2,3.78,3.56,6.08,4.69,2.3,1.13,4.65,1.69,7.04,1.69Z" fill="#02274c"/><path d="M562.56,697.32c-5.38,0-10.24-.91-14.59-2.72-4.35-1.81-8.06-4.3-11.14-7.47-3.07-3.16-5.42-6.77-7.04-10.82-1.62-4.05-2.43-8.4-2.43-13.04,0-6.24,1.43-12,4.29-17.28,2.86-5.28,6.91-9.5,12.16-12.66s11.54-4.75,18.88-4.75,13.48,1.59,18.69,4.75c5.2,3.17,9.22,7.33,12.03,12.49,2.82,5.16,4.22,10.78,4.22,16.86,0,1.1-.04,2.13-.13,3.11-.09.97-.17,1.8-.26,2.47h-51.71c.26,3.5,1.22,6.49,2.88,8.95s3.8,4.36,6.4,5.69c2.6,1.34,5.35,2,8.26,2,3.5,0,6.76-.83,9.79-2.5,3.03-1.66,5.1-3.9,6.21-6.72l14.59,4.1c-1.54,3.41-3.8,6.44-6.78,9.09-2.99,2.65-6.53,4.72-10.62,6.21s-8.66,2.24-13.7,2.24ZM545.02,657.52h35.07c-.34-3.34-1.3-6.23-2.88-8.69-1.58-2.46-3.65-4.38-6.21-5.75-2.56-1.38-5.42-2.06-8.58-2.06s-5.87.69-8.38,2.06c-2.52,1.38-4.57,3.29-6.14,5.75-1.58,2.46-2.54,5.36-2.88,8.69Z" fill="#02274c"/><path d="M670.46,696.04h-17.15v-37.09c0-5.3-.92-9.17-2.75-11.61-1.84-2.44-4.46-3.66-7.87-3.66-2.3,0-4.63.58-6.98,1.75-2.35,1.17-4.44,2.77-6.27,4.81-1.84,2.04-3.26,4.4-4.29,7.06v38.73h-17.02v-66.43h15.49v12.39c1.71-2.87,3.88-5.27,6.53-7.21,2.64-1.94,5.67-3.46,9.09-4.56,3.41-1.1,7.08-1.65,11.01-1.65,4.18,0,7.62.74,10.3,2.22,2.69,1.48,4.74,3.48,6.14,6.01,1.41,2.53,2.39,5.34,2.94,8.42.55,3.08.83,6.18.83,9.3v41.51Z" fill="#02274c"/><path d="M182.34,811.04v-90.88h17.66v90.88h-17.66Z" fill="#02274c"/><path d="M279.62,811.04h-17.15v-37.09c0-5.3-.92-9.17-2.75-11.61-1.84-2.44-4.46-3.66-7.87-3.66-2.3,0-4.63.58-6.98,1.75-2.35,1.17-4.44,2.77-6.27,4.81-1.84,2.04-3.26,4.4-4.29,7.06v38.73h-17.02v-66.43h15.49v12.39c1.71-2.87,3.88-5.27,6.53-7.21,2.64-1.94,5.67-3.46,9.09-4.56,3.41-1.1,7.08-1.65,11.01-1.65,4.18,0,7.62.74,10.3,2.22,2.69,1.48,4.74,3.48,6.14,6.01,1.41,2.53,2.39,5.34,2.94,8.42.55,3.08.83,6.18.83,9.3v41.51Z" fill="#02274c"/><path d="M334.4,807.72c-1.54.68-3.31,1.39-5.31,2.11-2.01.73-4.18,1.32-6.53,1.79-2.35.47-4.72.7-7.1.7-3.24,0-6.19-.55-8.83-1.65-2.65-1.1-4.76-2.85-6.34-5.26-1.58-2.41-2.37-5.56-2.37-9.45v-38.3h-8.7v-13.06h8.7v-21.76h17.28v21.76h14.08v13.06h-14.08v32.47c.08,2.28.72,3.94,1.92,4.99,1.19,1.05,2.73,1.58,4.61,1.58,1.71,0,3.41-.32,5.12-.96,1.71-.64,3.11-1.22,4.22-1.73l3.33,13.7Z" fill="#02274c"/><path d="M373.57,812.32c-5.38,0-10.24-.91-14.59-2.72-4.35-1.81-8.06-4.3-11.14-7.47-3.07-3.16-5.42-6.77-7.04-10.82-1.62-4.05-2.43-8.4-2.43-13.04,0-6.24,1.43-12,4.29-17.28,2.86-5.28,6.91-9.5,12.16-12.66s11.54-4.75,18.88-4.75,13.48,1.59,18.69,4.75c5.2,3.17,9.22,7.33,12.03,12.49,2.82,5.16,4.22,10.78,4.22,16.86,0,1.1-.04,2.13-.13,3.11-.09.97-.17,1.8-.26,2.47h-51.71c.26,3.5,1.22,6.49,2.88,8.95s3.8,4.36,6.4,5.69c2.6,1.34,5.35,2,8.26,2,3.5,0,6.76-.83,9.79-2.5,3.03-1.66,5.1-3.9,6.21-6.72l14.59,4.1c-1.54,3.41-3.8,6.44-6.78,9.09-2.99,2.65-6.53,4.72-10.62,6.21s-8.66,2.24-13.7,2.24ZM356.04,772.52h35.07c-.34-3.34-1.3-6.23-2.88-8.69-1.58-2.46-3.65-4.38-6.21-5.75-2.56-1.38-5.42-2.06-8.58-2.06s-5.87.69-8.38,2.06c-2.52,1.38-4.57,3.29-6.14,5.75-1.58,2.46-2.54,5.36-2.88,8.69Z" fill="#02274c"/><path d="M445.38,812.32c-4.44,0-8.51-.9-12.22-2.69-3.71-1.8-6.89-4.25-9.54-7.37-2.65-3.12-4.69-6.73-6.14-10.84-1.45-4.1-2.18-8.46-2.18-13.08,0-4.87.75-9.4,2.24-13.59,1.49-4.19,3.63-7.89,6.4-11.09,2.77-3.21,6.06-5.69,9.86-7.44,3.8-1.75,8-2.63,12.61-2.63,5.2,0,9.77,1.15,13.7,3.46,3.92,2.3,7.17,5.42,9.73,9.34v-11.78h14.98v63.44c0,6.61-1.62,12.27-4.86,16.97-3.24,4.7-7.64,8.31-13.18,10.81-5.55,2.5-11.95,3.75-19.2,3.75s-13.4-1.22-18.43-3.65c-5.04-2.43-9.34-5.87-12.93-10.3l9.34-9.09c2.56,3.16,5.78,5.63,9.66,7.42,3.88,1.79,8,2.69,12.35,2.69,3.58,0,6.91-.62,9.98-1.87,3.07-1.25,5.5-3.17,7.3-5.78,1.79-2.61,2.69-6.03,2.69-10.27v-8.45c-2.13,3.84-5.23,6.81-9.28,8.9-4.05,2.09-8.34,3.14-12.86,3.14ZM451.14,798.63c1.96,0,3.78-.3,5.44-.9s3.22-1.41,4.67-2.44c1.45-1.03,2.73-2.25,3.84-3.66,1.11-1.41,1.92-2.89,2.43-4.43v-15.92c-.94-2.65-2.33-4.97-4.16-6.93-1.84-1.97-3.88-3.49-6.14-4.56-2.26-1.07-4.63-1.61-7.1-1.61s-4.93.56-7.1,1.67c-2.18,1.11-4.03,2.65-5.57,4.62-1.54,1.97-2.73,4.2-3.58,6.68-.85,2.48-1.28,5.05-1.28,7.7s.49,5.31,1.47,7.7c.98,2.4,2.3,4.52,3.97,6.36,1.66,1.84,3.65,3.25,5.95,4.24,2.3.98,4.69,1.48,7.17,1.48Z" fill="#02274c"/><path d="M540.35,758.82c-5.29.09-9.98,1.09-14.08,3.01-4.1,1.92-7.08,4.76-8.96,8.51v40.7h-17.02v-66.43h15.74v13.7c2.39-4.61,5.44-8.23,9.15-10.88,3.71-2.64,7.62-4.1,11.71-4.35.85.09,1.54.11,2.05.06.51-.04.98.02,1.41.19v15.49Z" fill="#02274c"/><path d="M544.83,791.46c0-4.3,1.22-8.05,3.65-11.26,2.43-3.2,5.8-5.71,10.11-7.52,4.31-1.81,9.32-2.72,15.04-2.72,2.82,0,5.67.21,8.58.64,2.9.43,5.42,1.11,7.55,2.05v-3.69c0-4.1-1.24-7.29-3.71-9.55-2.48-2.26-6.19-3.39-11.14-3.39-3.76,0-7.3.64-10.62,1.92-3.33,1.28-6.83,3.12-10.5,5.5l-5.38-11.14c4.35-2.99,8.85-5.18,13.5-6.59,4.65-1.41,9.54-2.11,14.66-2.11,9.56,0,17,2.34,22.34,7,5.33,4.67,8,11.42,8,20.25v21.07c0,1.77.32,3.03.96,3.79.64.76,1.68,1.22,3.14,1.39v13.95c-1.54.26-2.92.47-4.16.64-1.24.17-2.28.21-3.14.13-3.41,0-6-.75-7.74-2.24-1.75-1.49-2.8-3.35-3.14-5.57l-.38-3.46c-2.99,3.76-6.66,6.66-11.01,8.7-4.35,2.05-8.79,3.07-13.31,3.07s-8.43-.93-11.97-2.78c-3.54-1.85-6.32-4.36-8.32-7.52-2.01-3.16-3.01-6.68-3.01-10.56ZM586.56,794.67c.94-.83,1.71-1.79,2.3-2.87.6-1.08.9-2,.9-2.75v-6.61c-2.05-.83-4.27-1.48-6.66-1.93-2.39-.46-4.65-.69-6.78-.69-4.44,0-8.09.94-10.94,2.81-2.86,1.87-4.29,4.35-4.29,7.43,0,1.66.47,3.27,1.41,4.81.94,1.54,2.28,2.77,4.03,3.68,1.75.92,3.9,1.37,6.46,1.37s5.08-.5,7.55-1.5c2.47-1,4.48-2.25,6.02-3.74Z" fill="#02274c"/><path d="M662.47,807.72c-1.54.68-3.31,1.39-5.31,2.11-2.01.73-4.18,1.32-6.53,1.79-2.35.47-4.72.7-7.1.7-3.24,0-6.19-.55-8.83-1.65-2.65-1.1-4.76-2.85-6.34-5.26-1.58-2.41-2.37-5.56-2.37-9.45v-38.3h-8.7v-13.06h8.7v-21.76h17.28v21.76h14.08v13.06h-14.08v32.47c.08,2.28.72,3.94,1.92,4.99,1.19,1.05,2.73,1.58,4.61,1.58,1.71,0,3.41-.32,5.12-.96,1.71-.64,3.11-1.22,4.22-1.73l3.33,13.7Z" fill="#02274c"/><path d="M671.42,726.05h0c0-4.67,3.78-8.45,8.44-8.45h.12c4.67,0,8.46,3.79,8.46,8.46v.12c0,4.59-3.72,8.31-8.31,8.31h-.27c-4.66,0-8.45-3.78-8.45-8.45ZM671.42,811v-66.99s.02-.04.04-.04h16.94s.04.02.04.04v66.99s-.02.04-.04.04h-16.94s-.04-.02-.04-.04Z" fill="#02274c"/><path d="M735.04,812.32c-5.46,0-10.35-.93-14.66-2.78-4.31-1.86-8-4.39-11.07-7.6-3.07-3.21-5.4-6.86-6.98-10.95-1.58-4.09-2.37-8.42-2.37-12.97s.79-9.16,2.37-13.29c1.58-4.13,3.88-7.78,6.91-10.95,3.03-3.16,6.72-5.65,11.07-7.47,4.35-1.81,9.22-2.72,14.59-2.72s10.47.91,14.78,2.72c4.31,1.82,8,4.31,11.07,7.47,3.07,3.16,5.42,6.81,7.04,10.95,1.62,4.14,2.43,8.57,2.43,13.29s-.81,8.88-2.43,12.97c-1.62,4.09-3.97,7.74-7.04,10.95-3.07,3.21-6.76,5.74-11.07,7.6-4.31,1.85-9.2,2.78-14.66,2.78ZM717.5,778.02c0,3.77.77,7.16,2.3,10.17,1.54,3.01,3.65,5.36,6.34,7.03,2.69,1.67,5.65,2.51,8.9,2.51s6.19-.86,8.83-2.57c2.64-1.72,4.76-4.06,6.34-7.03,1.58-2.97,2.37-6.38,2.37-10.23s-.79-7.14-2.37-10.11c-1.58-2.97-3.69-5.32-6.34-7.03-2.65-1.72-5.63-2.57-8.96-2.57s-6.19.86-8.83,2.57c-2.65,1.72-4.74,4.06-6.27,7.03-1.54,2.97-2.3,6.38-2.3,10.23Z" fill="#02274c"/><path d="M843.97,811.04h-17.15v-37.09c0-5.3-.92-9.17-2.75-11.61-1.84-2.44-4.46-3.66-7.87-3.66-2.3,0-4.63.58-6.98,1.75-2.35,1.17-4.44,2.77-6.27,4.81-1.84,2.04-3.26,4.4-4.29,7.06v38.73h-17.02v-66.43h15.49v12.39c1.71-2.87,3.88-5.27,6.53-7.21,2.64-1.94,5.67-3.46,9.09-4.56,3.41-1.1,7.08-1.65,11.01-1.65,4.18,0,7.62.74,10.3,2.22,2.69,1.48,4.74,3.48,6.14,6.01,1.41,2.53,2.39,5.34,2.94,8.42.55,3.08.83,6.18.83,9.3v41.51Z" fill="#02274c"/><path d="M373.76,910.56v15.49h-63.1v-90.88h61.95v15.49h-44.29v21.89h38.14v14.34h-38.14v23.68h45.44Z" fill="#02274c"/><path d="M447.88,926.04h-17.15v-37.09c0-5.3-.92-9.17-2.75-11.61-1.84-2.44-4.46-3.66-7.87-3.66-2.3,0-4.63.58-6.98,1.75-2.35,1.17-4.44,2.77-6.27,4.81-1.84,2.04-3.26,4.4-4.29,7.06v38.73h-17.02v-66.43h15.49v12.39c1.71-2.87,3.88-5.27,6.53-7.21,2.64-1.94,5.67-3.46,9.09-4.56,3.41-1.1,7.08-1.65,11.01-1.65,4.18,0,7.62.74,10.3,2.22,2.69,1.48,4.74,3.48,6.14,6.01,1.41,2.53,2.39,5.34,2.94,8.42.55,3.08.83,6.18.83,9.3v41.51Z" fill="#02274c"/><path d="M489.09,927.32c-4.44,0-8.51-.9-12.22-2.69-3.71-1.8-6.89-4.25-9.54-7.37-2.65-3.12-4.69-6.73-6.14-10.84-1.45-4.1-2.18-8.46-2.18-13.08,0-4.87.75-9.4,2.24-13.59,1.49-4.19,3.63-7.89,6.4-11.09,2.77-3.21,6.06-5.69,9.86-7.44,3.8-1.75,8-2.63,12.61-2.63,5.2,0,9.77,1.15,13.7,3.46,3.92,2.3,7.17,5.42,9.73,9.34v-11.78h14.98v63.44c0,6.61-1.62,12.27-4.86,16.97-3.24,4.7-7.64,8.31-13.18,10.81-5.55,2.5-11.95,3.75-19.2,3.75s-13.4-1.22-18.43-3.65c-5.04-2.43-9.34-5.87-12.93-10.3l9.34-9.09c2.56,3.16,5.78,5.63,9.66,7.42,3.88,1.79,8,2.69,12.35,2.69,3.58,0,6.91-.62,9.98-1.87,3.07-1.25,5.5-3.17,7.3-5.78,1.79-2.61,2.69-6.03,2.69-10.27v-8.45c-2.13,3.84-5.23,6.81-9.28,8.9-4.05,2.09-8.34,3.14-12.86,3.14ZM494.85,913.63c1.96,0,3.78-.3,5.44-.9s3.22-1.41,4.67-2.44c1.45-1.03,2.73-2.25,3.84-3.66,1.11-1.41,1.92-2.89,2.43-4.43v-15.92c-.94-2.65-2.33-4.97-4.16-6.93-1.84-1.97-3.88-3.49-6.14-4.56-2.26-1.07-4.63-1.61-7.1-1.61s-4.93.56-7.1,1.67c-2.18,1.11-4.03,2.65-5.57,4.62-1.54,1.97-2.73,4.2-3.58,6.68-.85,2.48-1.28,5.05-1.28,7.7s.49,5.31,1.47,7.7c.98,2.4,2.3,4.52,3.97,6.36,1.66,1.84,3.65,3.25,5.95,4.24,2.3.98,4.69,1.48,7.17,1.48Z" fill="#02274c"/><path d="M544,841.16h0c0-4.73,3.83-8.56,8.56-8.56h.15c4.59,0,8.31,3.72,8.31,8.31h0c0,4.74-3.84,8.58-8.58,8.58h-.1c-4.61,0-8.34-3.73-8.34-8.34ZM544,926.04v-67.07h17.02v67.07h-17.02Z" fill="#02274c"/><path d="M638.98,926.04h-17.15v-37.09c0-5.3-.92-9.17-2.75-11.61-1.84-2.44-4.46-3.66-7.87-3.66-2.3,0-4.63.58-6.98,1.75-2.35,1.17-4.44,2.77-6.27,4.81-1.84,2.04-3.26,4.4-4.29,7.06v38.73h-17.02v-66.43h15.49v12.39c1.71-2.87,3.88-5.27,6.53-7.21,2.64-1.94,5.67-3.46,9.09-4.56,3.41-1.1,7.08-1.65,11.01-1.65,4.18,0,7.62.74,10.3,2.22,2.69,1.48,4.74,3.48,6.14,6.01,1.41,2.53,2.39,5.34,2.94,8.42.55,3.08.83,6.18.83,9.3v41.51Z" fill="#02274c"/><path d="M685.05,927.32c-5.38,0-10.24-.91-14.59-2.72-4.35-1.81-8.06-4.3-11.14-7.47-3.07-3.16-5.42-6.77-7.04-10.82-1.62-4.05-2.43-8.4-2.43-13.04,0-6.24,1.43-12,4.29-17.28,2.86-5.28,6.91-9.5,12.16-12.66s11.54-4.75,18.88-4.75,13.48,1.59,18.69,4.75c5.2,3.17,9.22,7.33,12.03,12.49,2.82,5.16,4.22,10.78,4.22,16.86,0,1.1-.04,2.13-.13,3.11-.09.97-.17,1.8-.26,2.47h-51.71c.26,3.5,1.22,6.49,2.88,8.95s3.8,4.36,6.4,5.69c2.6,1.34,5.35,2,8.26,2,3.5,0,6.76-.83,9.79-2.5,3.03-1.66,5.1-3.9,6.21-6.72l14.59,4.1c-1.54,3.41-3.8,6.44-6.78,9.09-2.99,2.65-6.53,4.72-10.62,6.21s-8.66,2.24-13.7,2.24ZM667.52,887.52h35.07c-.34-3.34-1.3-6.23-2.88-8.69-1.58-2.46-3.65-4.38-6.21-5.75-2.56-1.38-5.42-2.06-8.58-2.06s-5.87.69-8.38,2.06c-2.52,1.38-4.57,3.29-6.14,5.75-1.58,2.46-2.54,5.36-2.88,8.69Z" fill="#02274c"/></svg>